<svg width="100" height="100" viewBox="0 0 100 100" fill="none" xmlns="http://www.w3.org/2000/svg">
<circle cx="50" cy="50" r="50" fill="white"/>
<path d="M66.6673 68.75V64.5833C66.6673 62.3732 65.7893 60.2536 64.2265 58.6908C62.6637 57.128 60.5441 56.25 58.334 56.25H41.6673C39.4572 56.25 37.3376 57.128 35.7748 58.6908C34.212 60.2536 33.334 62.3732 33.334 64.5833V68.75" stroke="#B8B8B8" stroke-width="1.5" stroke-linecap="round" stroke-linejoin="round"/>
<path d="M49.9993 47.9167C54.6017 47.9167 58.3327 44.1857 58.3327 39.5833C58.3327 34.981 54.6017 31.25 49.9993 31.25C45.397 31.25 41.666 34.981 41.666 39.5833C41.666 44.1857 45.397 47.9167 49.9993 47.9167Z" stroke="#B8B8B8" stroke-width="1.5" stroke-linecap="round" stroke-linejoin="round"/>
<path d="M95.001 5L97.1856 7.18458M92.8164 7.18458L95.001 5L92.8164 7.18458ZM97.1856 2.81542L95.0006 5L97.1856 2.81542ZM95.0006 5L92.8164 2.81542L95.0006 5Z" stroke="#1A1A1B" stroke-width="1.5" stroke-linecap="round" stroke-linejoin="round"/>
</svg>
