<svg height="512pt" viewBox="0 0 512 512" width="512pt" xmlns="http://www.w3.org/2000/svg"><path d="m437.019531 74.980469c-48.351562-48.351563-112.640625-74.980469-181.019531-74.980469s-132.667969 26.628906-181.019531 74.980469c-48.351563 48.351562-74.980469 112.640625-74.980469 181.019531s26.628906 132.667969 74.980469 181.019531c48.351562 48.351563 112.640625 74.980469 181.019531 74.980469 2.058594 0 4.15625-.023438 6.226562-.074219 8.285157-.203125 14.835938-7.078125 14.632813-15.359375-.199219-8.285156-7.046875-14.820312-15.359375-14.632812-1.828125.042968-3.679688.066406-5.5.066406-124.617188 0-226-101.382812-226-226s101.382812-226 226-226 226 101.382812 226 226c0 45.492188-13.519531 89.425781-39.09375 127.050781-4.984375 7.339844-11.679688 11.53125-20.457031 12.816407-8.78125 1.285156-16.394531-.808594-23.277344-6.402344l-11.882813-9.660156c1.421876-1.140626 2.820313-2.316407 4.191407-3.535157 8.816406-7.828125 13.203125-18.617187 12.351562-30.378906-.851562-11.761719-6.75-21.804687-16.605469-28.28125l-47.511718-31.222656c-13.414063-8.816407-30.832032-8.046875-43.347656 1.910156-7.035157 5.597656-16.753907 5.046875-23.109376-1.308594l-48.246093-48.242187c-6.355469-6.355469-6.90625-16.078125-1.308594-23.113282 9.957031-12.511718 10.726563-29.933593 1.910156-43.347656l-31.222656-47.511718c-6.476563-9.855469-16.519531-15.75-28.28125-16.605469-11.765625-.84375-22.550781 3.535156-30.378906 12.351562-38.609375 43.476563-36.632813 109.757813 4.5 150.894531l100.355469 100.355469c21.402343 21.402344 49.609374 32.207031 77.875 32.203125 13.988281 0 27.980468-2.671875 41.175781-7.988281l20.605469 16.757813c13.386718 10.882812 29.484374 15.3125 46.554687 12.808593 17.070313-2.5 31.222656-11.367187 40.921875-25.632812 28.96875-42.621094 44.28125-92.386719 44.28125-143.917969 0-68.378906-26.628906-132.667969-74.980469-181.019531zm-175.21875 275.578125-100.355469-100.359375c-29.925781-29.921875-31.367187-78.136719-3.285156-109.757813 1.460938-1.644531 3.839844-2.371094 5.429688-2.371094 1.410156 0 4.410156 1.167969 5.730468 3.179688l31.222657 47.511719c1.730469 2.632812 1.609375 5.773437-.316407 8.191406-15.011718 18.867187-13.476562 45.953125 3.574219 63.003906l48.242188 48.242188c17.046875 17.050781 44.132812 18.585937 63.003906 3.574219 2.417969-1.925782 5.558594-2.046876 8.191406-.316407l47.511719 31.222657c3.847656 3.847656 3.011719 8.957031.808594 11.160156-4.835938 4.835937-10.671875 8.300781-16.507813 11.304687-.082031.039063-.167969.078125-.25.121094-30.199219 15.398437-67.988281 10.304687-93-14.707031zm0 0"/><path d="m263.582031 90.171875c70.855469 3.238281 131.839844 51.160156 151.746094 119.238281 1.914063 6.546875 7.898437 10.796875 14.390625 10.796875 1.394531 0 2.8125-.195312 4.21875-.609375 7.949219-2.324218 12.511719-10.652344 10.1875-18.605468-23.507812-80.386719-95.511719-136.964844-179.171875-140.789063-8.277344-.375-15.292969 6.023437-15.671875 14.300781s6.023438 15.292969 14.300781 15.667969zm0 0"/><path d="m260.839844 150.109375c45.25 2.070313 84.1875 32.667969 96.898437 76.144531 1.914063 6.542969 7.898438 10.792969 14.390625 10.792969 1.394532 0 2.8125-.195313 4.21875-.609375 7.949219-2.324219 12.511719-10.652344 10.1875-18.605469-16.308594-55.777343-66.273437-95.035156-124.324218-97.6875-8.273438-.382812-15.292969 6.019531-15.667969 14.296875-.378907 8.277344 6.023437 15.289063 14.296875 15.667969zm0 0"/></svg>