<svg width="57" height="66" viewBox="0 0 57 66" fill="none" xmlns="http://www.w3.org/2000/svg">
<path d="M45.9878 14.1481C45.8852 8.18969 42.6687 1.9262 35.9764 0.782504L45.9878 14.1481ZM45.9878 14.1481C46.0388 17.1125 45.3069 19.8785 43.9396 21.7591M45.9878 14.1481L43.9396 21.7591M43.9396 21.7591C42.5997 23.6022 40.6511 24.6103 38.0857 24.1726M43.9396 21.7591L38.0857 24.1726M38.0857 24.1726C35.1623 23.6723 32.8926 20.9581 32.545 17.5853C32.545 17.5852 32.545 17.5852 32.545 17.5851L31.7989 17.662L38.0857 24.1726ZM22.2857 1.00913C21.9439 0.790844 21.5414 0.694216 21.0241 0.782444L22.2857 1.00913ZM22.2857 1.00913C22.6458 1.23903 22.9882 1.63694 23.2977 2.2258M22.2857 1.00913L23.2977 2.2258M23.2977 2.2258C23.9228 3.41513 24.3118 5.18446 24.5245 7.18936M23.2977 2.2258L24.5245 7.18936M24.5245 7.18936C24.9472 11.1745 24.6431 15.7562 24.4551 17.5837M24.5245 7.18936L24.4551 17.5837M24.4551 17.5837C24.1076 20.9583 21.8405 23.6708 18.9175 24.1711M24.4551 17.5837L18.9175 24.1711M18.9175 24.1711C16.3511 24.6096 14.402 23.6019 13.0619 21.759M18.9175 24.1711L13.0619 21.759M13.0619 21.759C11.6944 19.8787 10.9623 17.1128 11.0132 14.1484M13.0619 21.759L11.0132 14.1484M11.0132 14.1484C11.1157 8.18995 14.3322 1.9261 21.0239 0.782477L11.0132 14.1484ZM28.4982 29.3893H28.5001C32.1466 29.3893 35.2073 31.8769 36.0714 35.238L36.0715 35.2385C36.2999 36.1245 36.4765 37.023 36.6571 37.9415C36.7067 38.1939 36.7565 38.4477 36.8079 38.7032C37.0431 39.8737 37.3066 41.0658 37.7067 42.2046C38.5183 44.5149 39.8974 46.6158 42.7283 48.0375L42.7738 48.0603L42.8218 48.0767C45.0998 48.8572 46.5259 49.6935 47.41 50.8803C48.2903 52.0621 48.7217 53.7123 48.7217 56.3273C48.7217 58.2633 47.8942 60.3038 46.4962 61.9337C45.1007 63.5605 43.1798 64.7282 41.0496 64.9861L41.0386 64.9875L41.0276 64.9891C35.9508 65.7568 32.0376 64.7533 28.8719 62.9367L28.4986 62.7225L28.1253 62.9367C24.9594 64.7535 21.0449 65.7582 15.9757 64.9892L15.9645 64.9875L15.9533 64.9861C13.8224 64.7283 11.9012 63.5572 10.5053 61.9281C9.10674 60.2958 8.27985 58.2551 8.27985 56.3273C8.27985 53.7815 8.73639 52.0997 9.64871 50.8803C10.5637 49.6573 12.0222 48.7848 14.2802 48.044L14.3366 48.0255L14.3894 47.9983C17.4571 46.4204 18.8063 44.2166 19.5351 41.8561C19.8923 40.6992 20.1013 39.5029 20.297 38.3575C20.304 38.3165 20.311 38.2756 20.3179 38.2347C20.5084 37.1188 20.6902 36.0534 20.9838 35.0339C21.4624 33.3999 22.4539 31.9672 23.8086 30.9499C25.1636 29.9323 26.8091 29.385 28.4982 29.3893ZM46.2183 31.9252L46.2339 31.9071L46.2484 31.8881C47.1007 30.7668 48.94 29.0096 50.7486 27.6859C51.6524 27.0244 52.5076 26.5018 53.1952 26.2188C53.5408 26.0766 53.8038 26.0119 53.9861 26.0007C54.1054 25.9933 54.1552 26.0099 54.1685 26.0161C55.4236 27.1159 56.1122 29.1088 56.2314 31.5208C56.3495 33.9089 55.8988 36.5578 55.0444 38.7825L55.041 38.7912L55.0379 38.8001C54.2072 41.1362 52.2387 42.6903 50.026 42.6903C47.1291 42.6903 44.6101 39.969 44.6101 36.3971C44.6101 34.6398 45.2343 33.0617 46.2183 31.9252ZM54.1723 26.0183C54.1722 26.0183 54.1712 26.0178 54.1695 26.0166C54.1716 26.0176 54.1725 26.0182 54.1723 26.0183ZM1.96368 38.8001L1.96047 38.7911L1.95702 38.7821C1.10137 36.5577 0.650645 33.9089 0.768508 31.5207C0.887528 29.1091 1.5756 27.1163 2.82846 26.0164C2.84164 26.0102 2.89162 25.9932 3.01205 26.0007C3.19465 26.0119 3.45793 26.0766 3.80359 26.2188C4.49148 26.5018 5.34678 27.0244 6.25063 27.6859C8.05933 29.0095 9.89882 30.7669 10.7519 31.8883L10.7663 31.9072L10.7818 31.9252C11.7656 33.0614 12.3886 34.6394 12.3886 36.3971C12.3886 39.9692 9.87223 42.6903 6.97268 42.6903C4.7617 42.6903 2.79448 41.1366 1.96368 38.8001ZM2.8247 26.0185C2.82463 26.0185 2.82553 26.0178 2.82761 26.0168C2.8258 26.0181 2.82477 26.0186 2.8247 26.0185Z" stroke="#1A1A1B" stroke-width="1.5"/>
</svg>
