<svg width="57" height="66" viewBox="0 0 57 66" fill="none" xmlns="http://www.w3.org/2000/svg">
<path fill-rule="evenodd" clip-rule="evenodd" d="M35.3453 35.4257L35.345 35.4248C34.5644 32.3884 31.7974 30.1393 28.5001 30.1393V28.6397L28.4963 30.1393C26.9707 30.1355 25.4839 30.6297 24.2589 31.5496C23.0348 32.4689 22.1377 33.7642 21.7042 35.2427C21.4226 36.2208 21.2471 37.2489 21.0542 38.3784L21.0363 38.4838C20.8415 39.6241 20.6254 40.8669 20.2517 42.0773C19.4755 44.5916 18.0129 46.9779 14.7324 48.6653L14.6268 48.7196L14.514 48.7566C12.3179 49.4771 11.0301 50.2858 10.2492 51.3296C9.47375 52.3661 9.02985 53.8612 9.02985 56.3273C9.02985 58.0495 9.77413 59.922 11.0748 61.4401C12.3702 62.9519 14.1292 64.0099 16.0434 64.2416L16.0658 64.2443L16.0882 64.2477C20.9868 64.9908 24.7305 64.0201 27.752 62.2862L28.4986 61.8577L29.2452 62.2862C32.2663 64.0199 36.0088 64.9896 40.9155 64.2476L40.9374 64.2442L40.9595 64.2416C42.8737 64.0098 44.6323 62.9546 45.9269 61.4454C47.2266 59.9302 47.9717 58.058 47.9717 56.3273C47.9717 53.7802 47.5485 52.3217 46.8085 51.3283C46.0611 50.3249 44.8106 49.5509 42.5788 48.7863L42.4826 48.7533L42.3918 48.7077C39.3484 47.1793 37.8591 44.9012 36.9991 42.4532C36.5805 41.2618 36.3088 40.0263 36.0726 38.8509C36.0197 38.588 35.9689 38.3293 35.9187 38.074C35.7388 37.159 35.5677 36.2885 35.3453 35.4257ZM28.5001 28.6393C26.6474 28.6346 24.8433 29.2349 23.3582 30.3501C21.8732 31.4653 20.7873 33.0353 20.2636 34.8246C19.9578 35.8859 19.7696 36.989 19.5812 38.0933C18.9846 41.5902 18.3859 45.0993 14.0463 47.3314C9.40657 48.8536 7.52985 51.0761 7.52985 56.3273C7.52985 60.5943 11.1679 65.1625 15.8632 65.7307C21.1029 66.5256 25.1884 65.4868 28.4986 63.5872C31.8089 65.4868 35.8929 66.5241 41.1398 65.7307C45.8323 65.1625 49.4717 60.6101 49.4717 56.3273C49.4717 50.9613 47.7133 48.9598 43.0649 47.3672C38.8585 45.2548 38.1347 41.5714 37.3954 37.8087C37.2142 36.887 37.0322 35.9606 36.7978 35.0513C35.8502 31.3654 32.4957 28.6393 28.5001 28.6393ZM46.8166 32.38L46.7853 32.4161C45.9216 33.4136 45.3601 34.8165 45.3601 36.3971C45.3601 39.6513 47.6337 41.9403 50.026 41.9403C51.8636 41.9403 53.5861 40.6443 54.3312 38.5488L54.3375 38.5311L54.3442 38.5136C55.1631 36.3815 55.595 33.8365 55.4823 31.5578C55.3751 29.3876 54.7929 27.724 53.8796 26.7764C53.7854 26.7997 53.6536 26.8412 53.4806 26.9123C52.8742 27.1619 52.0752 27.6444 51.1916 28.2911C49.4223 29.586 47.6416 31.2945 46.8455 32.3419L46.8166 32.38ZM53.6714 26.5777L54.6575 25.4497L53.6709 26.5773C53.6711 26.5774 53.6712 26.5776 53.6714 26.5777ZM2.66391 38.5307L2.67034 38.5488C3.41567 40.6449 5.13708 41.9403 6.97268 41.9403C9.36747 41.9403 11.6386 39.6518 11.6386 36.3971C11.6386 34.8157 11.078 33.413 10.2148 32.4161L10.1837 32.3802L10.155 32.3424C9.35796 31.2946 7.57706 29.586 5.8077 28.2911C4.92402 27.6444 4.12493 27.162 3.51826 26.9124C3.34478 26.8411 3.2126 26.7996 3.11819 26.7762C2.2065 27.724 1.62469 29.3878 1.5176 31.5577C1.40513 33.8364 1.83704 36.3812 2.65702 38.5128L2.66391 38.5307ZM36.1024 0.0431604C50.4777 2.49947 49.4688 26.876 37.9592 24.9118C34.6389 24.3437 32.1737 21.2991 31.7989 17.662C31.4185 13.9632 30.562 -0.900911 36.1024 0.0431604ZM35.8498 1.52173C35.5083 1.46368 35.2963 1.52806 35.1188 1.64151C34.9047 1.77826 34.6395 2.05672 34.367 2.57544C33.8096 3.63606 33.4321 5.28999 33.222 7.26979C32.807 11.1801 33.1053 15.7027 33.291 17.5082M33.291 17.5085C33.6115 20.6171 35.6857 23.001 38.2122 23.4333C40.4655 23.8176 42.1416 22.9568 43.333 21.3181C44.579 19.6043 45.287 17.012 45.2379 14.161C45.1387 8.39986 42.0474 2.5811 35.8504 1.52185M54.6587 25.4484C57.6227 28.0396 57.5243 34.4171 55.7445 39.0514C54.8282 41.6282 52.6138 43.4403 50.026 43.4403C46.6246 43.4403 43.8601 40.2867 43.8601 36.3971C43.8601 34.463 44.5469 32.7097 45.6513 31.4342C47.4682 29.0439 53.2437 24.2102 54.6587 25.4484ZM2.3386 25.4484C-0.621116 28.0396 -0.525641 34.4171 1.25703 39.0514C2.1733 41.6282 4.38631 43.4403 6.97268 43.4403C10.377 43.4403 13.1386 40.2867 13.1386 36.3971C13.1386 34.463 12.4532 32.7097 11.3488 31.4342C9.53054 29.0439 3.75647 24.2102 2.3386 25.4484ZM21.1504 1.52173C21.4924 1.46346 21.7045 1.52787 21.8821 1.64127ZM21.8821 1.64127C22.0961 1.77791 22.3613 2.0562 22.6338 2.57475ZM22.6338 2.57475C23.1912 3.63507 23.5687 5.28876 23.7787 7.26847ZM23.7787 7.26847C24.1935 11.1786 23.8948 15.7012 23.7091 17.5069ZM23.7091 17.5071C23.3886 20.6177 21.3168 22.9996 18.7908 23.4319C16.5364 23.8169 14.8599 22.9563 13.6684 21.3179C12.4223 19.6044 11.7141 17.0123 11.7631 14.1613C11.8622 8.40003 14.9537 2.58089 21.15 1.52179M19.0438 24.9104C7.53127 26.8774 6.52381 2.49947 20.8977 0.0431604C26.4395 -0.902345 25.5817 13.9618 25.2012 17.6606C24.8264 21.2991 22.364 24.3422 19.0438 24.9104Z" fill="#1A1A1B"/>
</svg>
